<?xml version="1.0" encoding="UTF-8" standalone="no"?>
<svg xmlns="http://www.w3.org/2000/svg" width="124" height="124">
  <defs>
    <linearGradient id="d" x1="178.66" x2="193.88" y1="241.71" y2="241.71" gradientTransform="translate(-104.25 -193.95)" gradientUnits="userSpaceOnUse">
      <stop offset="0" stop-color="#97d2df"/>
      <stop offset=".1011" stop-color="#d9dcdd"/>
      <stop offset=".3146" stop-color="#82cfdf"/>
      <stop offset=".4213" stop-color="#7c8d92"/>
      <stop offset=".5337" stop-color="#99b6c1"/>
      <stop offset=".6798" stop-color="#fff"/>
      <stop offset=".8652" stop-color="#7a9ba5"/>
      <stop offset=".927" stop-color="#b3c5c9"/>
      <stop offset=".9551" stop-color="#99d2de"/>
      <stop offset="1" stop-color="#546b72"/>
    </linearGradient>
    <linearGradient id="c" x1="170.04" x2="184.96" y1="248.7" y2="248.7" gradientTransform="translate(-104.25 -193.95)" gradientUnits="userSpaceOnUse">
      <stop offset="0" stop-color="#97d2df"/>
      <stop offset=".1011" stop-color="#d9dcdd"/>
      <stop offset=".3146" stop-color="#82cfdf"/>
      <stop offset=".4213" stop-color="#7c8d92"/>
      <stop offset=".5337" stop-color="#99b6c1"/>
      <stop offset=".6798" stop-color="#fff"/>
      <stop offset=".8652" stop-color="#7a9ba5"/>
      <stop offset=".927" stop-color="#b3c5c9"/>
      <stop offset=".9551" stop-color="#99d2de"/>
      <stop offset="1" stop-color="#546b72"/>
    </linearGradient>
    <linearGradient id="b" x1="163.63" x2="178.02" y1="258.99" y2="258.99" gradientTransform="translate(-104.25 -193.95)" gradientUnits="userSpaceOnUse">
      <stop offset="0" stop-color="#97d2df"/>
      <stop offset=".1011" stop-color="#d9dcdd"/>
      <stop offset=".3146" stop-color="#82cfdf"/>
      <stop offset=".4213" stop-color="#7c8d92"/>
      <stop offset=".5337" stop-color="#99b6c1"/>
      <stop offset=".6798" stop-color="#fff"/>
      <stop offset=".8652" stop-color="#7a9ba5"/>
      <stop offset=".927" stop-color="#b3c5c9"/>
      <stop offset=".9551" stop-color="#99d2de"/>
      <stop offset="1" stop-color="#546b72"/>
    </linearGradient>
    <linearGradient id="a" x1="153.6" x2="166.78" y1="268.54" y2="268.54" gradientTransform="translate(-104.25 -193.95)" gradientUnits="userSpaceOnUse">
      <stop offset="0" stop-color="#97d2df"/>
      <stop offset=".1011" stop-color="#d9dcdd"/>
      <stop offset=".3146" stop-color="#82cfdf"/>
      <stop offset=".4213" stop-color="#7c8d92"/>
      <stop offset=".5337" stop-color="#99b6c1"/>
      <stop offset=".6798" stop-color="#fff"/>
      <stop offset=".8652" stop-color="#7a9ba5"/>
      <stop offset=".927" stop-color="#b3c5c9"/>
      <stop offset=".9551" stop-color="#99d2de"/>
      <stop offset="1" stop-color="#546b72"/>
    </linearGradient>
  </defs>
  <path fill="#1c1c8c" stroke="#f9cb0d" stroke-width=".2797" d="M26.504 85.459c-3.256 3.476-3.21 6.953-3.24 11.686-.02 3.722-.96 8.601 2.713 10.352 3.83 1.825 8.523 1.539 12.505 3.124 3.053 1.217 5.639 2.671 8.137 4.762-1.379-1.688-2.257-3.784-3.717-5.431 4.927-.979 9.524.102 14.353.201-2.384-3.297-8.984-4.184-12.621-5.178-3.941-1.076-9.225-1.491-12.146-4.525-1.943-2.019-3.108-4.319-3.426-7.107-.289-2.547.325-5.285-2.236-6.92"/>
  <path fill="#231f20" stroke="#f9cb0d" stroke-width=".2797" d="M58.576 77.741c-6.466 5.095-14.875 6.001-22.786 6.334-2.191.09-6.64.821-7.361-2.012-.507-1.992 2.106-4.987 3.261-6.368 4.075-4.865 8.58-9.481 12.955-14.077 4.136-4.344 8.653-8.087 13.187-11.988 1.341-1.153 5.304-6.362 7.291-5.382 3.254 1.61.859 14.645.495 17.167-.84 5.8-2.175 12.492-7.042 16.326z"/>
  <path fill="none" stroke="#593505" stroke-miterlimit="8.6" stroke-width=".768" d="m64.844 1.92 18.274 36.392 39.743 6.084-28.518 28.038 6.538 39.843-35.798-18.501-35.791 18.951 6.657-40.088-28.5-28.125 39.29-6.447L64.846 1.914z"/>
  <path fill="#b5a488" stroke="#593505" stroke-width=".256" d="M64.935 2.718v44.151l.07.03 17.847-8.343-17.919-35.84z"/>
  <path fill="#9e85a3" d="m65.167 30.877-.232.1v16.671l.07.162 17.847-9.249-17.687-7.68z"/>
  <path fill="#d6c28f" stroke="#593505" stroke-width=".256" d="M64.935 2.718v44.151l-.07.03-17.847-8.343 17.919-35.84z"/>
  <path fill="#ab9272" d="m64.703 30.877.232.1v15.896l.445.937-18.365-9.249 17.688-7.68z"/>
  <path fill="#a78d6b" stroke="#593505" stroke-width=".256" d="m7.704 44.521 41.955 13.563v.08L36.247 72.561 7.696 44.523z"/>
  <path fill="#a993ad" d="m34.391 53.392.162-.19 15.105 4.882.783.466-14.187 14.009-1.863-19.167z"/>
  <path fill="#d7c28e" stroke="#593505" stroke-width=".256" d="m7.704 44.521 41.955 13.563.05-.06L47.263 38.5 7.701 44.52z"/>
  <path fill="#b59f82" d="m34.534 52.95.02.251 15.105 4.882.828-.06-3.222-19.524-12.731 14.45z"/>
  <path fill="#cfb77c" stroke="#593505" stroke-width=".256" d="m29.729 112.13 25.823-35.813-.04-.07-19.357-3.67-6.426 39.551z"/>
  <path fill="#c8ac68" d="m46.011 89.157.244.06 9.297-12.894.219-.972-19.616-2.766 9.856 16.575z"/>
  <path fill="#b7a3bb" stroke="#593505" stroke-width=".256" d="m29.729 112.13 25.823-35.813.08.02 9.596 17.208-35.496 18.589z"/>
  <path fill="#c8aa83" d="m46.387 89.428-.132-.214 9.297-12.894.594-.758 9.079 17.982-18.838-4.116z"/>
  <path fill="#b1a3a7" stroke="#593505" stroke-width=".256" d="M100.6 111.7 74.505 76.158l.04-.07 19.298-3.83 6.758 39.44z"/>
  <path fill="#cfb77c" d="m84.142 88.894-.243.06-9.783-13.441-.09-.07 19.815-3.185-9.699 16.635z"/>
  <path fill="#a07e60" stroke="#593505" stroke-width=".256" d="M100.6 111.7 74.505 76.158l-.08.02-9.435 17.268 35.607 18.257z"/>
  <path fill="#cfb77c" d="m83.769 89.167.13-.213-9.395-12.796-.336-.628-9.176 17.912 18.777-4.275z"/>
  <path fill="#beadc1" stroke="#593505" stroke-width=".256" d="M122.26 44.512 80.275 58.086v.08l13.422 14.406 28.571-28.059z"/>
  <path fill="#ae9064" d="m95.555 53.389-.162-.189-15.116 4.885-.655.337L93.69 72.569l1.865-19.18z"/>
  <path fill="#d1ba80" stroke="#593505" stroke-width=".256" d="M122.26 44.512 80.275 58.086l-.05-.06 2.448-19.538 39.59 6.023z"/>
  <path fill="#caae6b" d="m95.412 52.949-.02.251-15.116 4.885-.699.07 3.094-19.668 12.741 14.46z"/>
  <path fill="#a78d6b" stroke="#593505" stroke-width=".256" d="M65.092 93.208V70.905l-.04-.01-9.016 4.213 9.053 18.105z"/>
  <path fill="#d7c28e" d="m64.975 78.983.118-.05v-8.422l-.04-.08-9.016 4.673 8.935 3.88z"/>
  <path fill="#ceb474" d="m65.209 78.983-.117-.05v-8.029l-.225-.475 9.278 4.673-8.936 3.88z"/>
  <path fill="#b9a88d" stroke="#593505" stroke-width=".256" d="m94.003 72.091-21.194-6.853v-.04l6.775-7.273 14.423 14.166z"/>
  <path fill="#d7c28e" d="m80.523 67.608-.08.1-7.631-2.467-.396-.236 7.167-7.076.943 9.681z"/>
  <path fill="#a49398" stroke="#593505" stroke-width=".256" d="m94.003 72.091-21.194-6.853-.03.03 1.236 9.862L94 72.091z"/>
  <path fill="#aa8863" d="M80.45 67.831v-.126l-7.631-2.467-.418.03 1.627 9.862 6.431-7.299z"/>
  <path fill="#a993ad" stroke="#593505" stroke-width=".256" d="M82.877 37.933 69.833 56.025l.02.03 9.778 1.854 3.246-19.981z"/>
  <path fill="#9c877f" d="m74.652 49.542-.124-.03-4.696 6.513-.111.492 9.91 1.397-4.979-8.372z"/>
  <path fill="#d7c28e" stroke="#593505" stroke-width=".256" d="M82.877 37.933 69.833 56.025h-.04l-4.849-8.691 17.933-9.393z"/>
  <path fill="#ba9661" d="m74.461 49.406.07.106-4.696 6.513-.301.383-4.587-9.083 9.517 2.081z"/>
  <path fill="#c39f56" stroke="#593505" stroke-width=".256" d="m47.075 38.154 13.183 17.953-.02.03-9.748 1.936-3.415-19.924z"/>
  <path fill="#9e85a3" d="m55.389 49.672.123-.03 4.943 6.789.04.04-10.009 1.608 4.898-8.404z"/>
  <path fill="#caae6b" stroke="#593505" stroke-width=".256" d="m47.075 38.154 13.183 17.953h.04l4.765-8.723-17.988-9.223z"/>
  <path fill="#a993ad" d="m55.577 49.534-.06.109 4.746 6.463.169.317 4.636-9.047-9.486 2.158z"/>
  <path fill="#d7c28e" stroke="#593505" stroke-width=".256" d="m36.132 72.094 21.209-6.857v-.04l-6.78-7.278-14.434 14.175z"/>
  <path fill="#c1aa88" d="m49.622 67.609.08.1 7.636-2.469.331-.169-7.106-7.148-.944 9.69z"/>
  <path fill="#987d9e" stroke="#593505" stroke-width=".256" d="m36.132 72.094 21.209-6.857.03.03-1.236 9.87-19.999-3.043z"/>
  <path fill="#a993ad" d="m49.695 67.831.01-.126 7.636-2.469.354-.04-1.563 9.937-6.437-7.305z"/>
  <path fill="none" stroke="#593505" stroke-miterlimit="8.6" stroke-width=".512" d="m65.137 93.611-9.231-18.386-20.4-3.035 14.729-14.202L46.8 37.65l18.218 9.555 18.081-9.574-3.364 20.25 14.836 14.356-20.286 3.109-9.148 18.265z"/>
  <g stroke="#593505">
    <path fill="#beadc1" stroke-width=".256" d="M65.092 93.208V70.905l.04-.01 9.017 4.213-9.053 18.105z"/>
    <path fill="#b5a488" stroke-width=".065438" d="M65.028 47.413v11.285l.018.01 4.5631-2.1323-4.5812-9.1611z"/>
  </g>
  <path fill="#9e85a3" d="m65.087 54.611-.059.026v4.2604l.018.041 4.5631-2.3637-4.5227-1.9632z"/>
  <path fill="#d6c28f" stroke="#593505" stroke-width=".065438" d="M65.028 47.413v11.285l-.018.01-4.563-2.1323 4.5812-9.1611z"/>
  <path fill="#ab9272" d="m64.97 54.611.058.026v4.0605l.1137.2403-4.6949-2.3637 4.5227-1.9629z"/>
  <path fill="#a78d6b" stroke="#593505" stroke-width=".065438" d="m50.398 58.099 10.725 3.4664v.021l-3.4283 3.6791-7.2989-7.1665z"/>
  <path fill="#a993ad" d="m57.221 60.365.041-.048 3.8604 1.2479.2001.1186-3.6259 3.5814-.476-4.8996z"/>
  <path fill="#d7c28e" stroke="#593505" stroke-width=".065438" d="m50.398 58.099 10.725 3.4664.014-.015-.626-4.9907-10.113 1.5394z"/>
  <path fill="#b59f82" d="m57.257 60.253.01.065 3.8604 1.2479.2119-.015-.8239-4.9906-3.2542 3.6934z"/>
  <path fill="#cfb77c" stroke="#593505" stroke-width=".065438" d="m56.03 75.381 6.5995-9.1539-.01-.018-4.9477-.9376-1.6426 10.11z"/>
  <path fill="#c8ac68" d="m60.191 69.508.062.015 2.376-3.2955.057-.2474-5.0137-.7091 2.5189 4.2374z"/>
  <path fill="#b7a3bb" stroke="#593505" stroke-width=".065438" d="m56.03 75.381 6.5995-9.1539h.021l2.4536 4.3989-9.0736 4.7512z"/>
  <path fill="#c8aa83" d="m60.287 69.577-.034-.055 2.3759-3.2954.1529-.1938 2.3212 4.5968-4.8158-1.0524z"/>
  <path fill="#b1a3a7" stroke="#593505" stroke-width=".065438" d="m74.145 75.27-6.6703-9.0838.01-.018 4.9332-.98 1.7274 10.082z"/>
  <path fill="#cfb77c" d="m69.938 69.44-.062.018-2.5009-3.4355-.024-.018 5.0653-.8139-2.4787 4.2512z"/>
  <path fill="#a07e60" stroke="#593505" stroke-width=".065438" d="m74.145 75.27-6.6703-9.0838h-.019l-2.4113 4.413 9.101 4.6671z"/>
  <path fill="#cfb77c" d="m69.842 69.511.034-.055-2.4018-3.2706-.086-.161-2.3448 4.5781 4.7987-1.0918z"/>
  <path fill="#beadc1" stroke="#593505" stroke-width=".065438" d="M79.682 58.097 68.95 61.565v.02l3.4301 3.6827 7.3032-7.1713z"/>
  <path fill="#ae9064" d="m72.855 60.365-.041-.048-3.8636 1.2484-.1669.086 3.5957 3.6172.4762-4.9032z"/>
  <path fill="#d1ba80" stroke="#593505" stroke-width=".065438" d="M79.682 58.097 68.95 61.5652l-.013-.015.6245-4.9943 10.12 1.5416z"/>
  <path fill="#caae6b" d="m72.819 60.253-.01.065-3.8637 1.2484-.1776.018.7896-5.0288 3.257 3.697z"/>
  <path fill="none" stroke="#593505" stroke-miterlimit="8.6" stroke-width=".13088" d="m65.006 47.208 4.6704 9.3032 10.322 1.537-7.4518 7.1841 1.7382 10.292-9.2188-4.8355-9.1493 4.8453 1.7027-10.248-7.5072-7.2631 10.266-1.5728 4.628-9.2421z"/>
  <g stroke="#593505" stroke-width=".065438">
    <path fill="#a78d6b" d="M65.069 70.542v-5.7013h-.01l-2.3041 1.0777 2.3138 4.6264z"/>
    <path fill="#d7c28e" d="m65.039 66.908.03-.013v-2.1528l-.01-.02-2.3042 1.1952 2.2837.9918z"/>
    <path fill="#beadc1" d="M65.069 70.542v-5.7013h.01l2.3037 1.0777-2.3134 4.6264z"/>
    <path fill="#ceb474" d="m65.098 66.908-.029-.013v-2.0536l-.058-.1207 2.3716 1.1953-2.2842.9918z"/>
    <path fill="#b9a88d" d="m72.459 65.146-5.4181-1.7525v-.01l1.7328-1.8578 3.6868 3.6211z"/>
    <path fill="#d7c28e" d="m69.013 64-.022.026-1.9501-.6308-.1015-.061 1.8331-1.8077.2405 2.4748z"/>
    <path fill="#a49398" d="m72.459 65.146-5.4181-1.7525-.01.01.3155 2.523 5.109-.7768z"/>
    <path fill="#aa8863" d="M68.994 64.057v-.032l-1.9501-.6308-.1074.01.4164 2.523 1.6439-1.8663z"/>
    <path fill="#a993ad" d="m69.614 56.414-3.334 4.6249v.01l2.5009.4742.8287-5.1073z"/>
    <path fill="#9c877f" d="m67.512 59.382-.032-.01-1.2001 1.665-.028.1261 2.5337.3563-1.2735-2.1393z"/>
    <path fill="#d7c28e" d="m69.614 56.414-3.334 4.6249h-.01l-1.2387-2.2221 4.5829-2.4003z"/>
    <path fill="#ba9661" d="m67.463 59.346.018.028-1.2001 1.6651-.077.097-1.1717-2.3213 2.4314.5317z"/>
    <path fill="#c39f56" d="m60.464 56.47 3.3695 4.5898-.01.01-2.4917.4967-.8719-5.0947z"/>
    <path fill="#9e85a3" d="m62.588 59.416.032-.01 1.2643 1.7359.011.01-2.5595.4136 1.2518-2.1495z"/>
    <path fill="#caae6b" d="m60.464 56.47 3.3695 4.5898h.01l1.2183-2.2315-4.597-2.3568z"/>
    <path fill="#a993ad" d="m62.636 59.38-.016.027 1.2134 1.6528.043.082 1.1845-2.3144-2.4248.5527z"/>
    <path fill="#d7c28e" d="m57.666 65.146 5.4214-1.7525v-.01l-1.7323-1.8593-3.6901 3.6226z"/>
    <path fill="#c1aa88" d="m61.115 64 .021.026 1.9516-.6324.084-.044-1.8154-1.8256-.2413 2.4762z"/>
    <path fill="#987d9e" d="m57.666 65.146 5.4214-1.7525.01.01-.3165 2.523-5.1118-.7768z"/>
    <path fill="#a993ad" d="M61.133 64.057v-.031l1.9516-.6324.09-.01-.3998 2.5386-1.6446-1.8663z"/>
  </g>
  <g fill="none" stroke="#593505">
    <path stroke-width=".065438" d="m65.081 70.645-2.3598-4.6998-5.2149-.774 3.7648-3.6297-.8781-5.1993 4.6569 2.4429 4.6215-2.4477-.8599 5.1757 3.7926 3.6709-5.1854.795-2.3377 4.666z"/>
    <g stroke-miterlimit="8.6">
      <path stroke-width=".768" d="m7.704 44.521 42.465 13.332M64.938 2.504l-.003 44.004m15.063 11.541 42.262-13.573M29.729 112.13 55.94 75.486m18.278-.068L100.6 111.7"/>
      <path stroke-width=".512" d="m47.076 38.316 13.14 17.407M83.053 37.73 69.774 55.723M57.589 65.16l-21.761 6.992m29.24-1.581.022 22.745m7.475-28.156 21.853 6.992"/>
      <path stroke-width=".256" d="m65.05 58.785-.02-11.428m3.781 14.156 10.52-3.23m-11.913 7.696 6.365 9.281m-11.006-9.467-7.128 10.099m5.622-14.351L50.826 58.17"/>
    </g>
  </g>
  <g stroke="#f9cb0d" stroke-width=".2797">
    <path fill="#1c1c8c" d="M33.573 81.925c-1.861-2.463-1.783-3.881-5.17-3.165-2.696.566-4.343 1.306-4.964 4.194-.712 3.307 3.256 10.029 7.144 7.005-1.561-1.168-5.67-2.153-4.497-5.053 1.128 1.583 3.198 5.731 5.949 4.553 2.013-.863 2.314-5.395 1.538-6.893"/>
    <path fill="#1c52db" d="M17.808 104.27c-1.583 3.188-5.422 4.419-8.47 5.911-2.444 1.198-5.857 2.955-8.445 3.626 4.466 1.484 9.694.497 14.322.301-.08 2.589 1.963 6.25 3.583 8.216 1.066-3.836 3.593-6.72 5.875-9.836 2.039-2.784 1.523-5.55 1.188-9.085-.346-3.656-1.151-7.645.103-11.081.718-1.969 3.047-6.218.04-7.538-2.465-1.082-4.309 2.193-5.039 3.956-2.04 4.921-.787 10.763-3.153 15.53zm77.961-59.044C89.146 66.588 68.39 83.772 47.258 89.238 40.857 90.893 35.94 91.285 30 88.351c.514-.611 1.314-.945 2.191-.973-1.593.319-2.472-.389-2.493-1.899-.02-1.703 1.273-1.991 2.44-2.903 4.78-3.733 10.13-7.487 14.267-11.843 3.141-3.307 6.452-6.446 9.638-9.709 2.917-2.987 4.977-6.393 7.645-9.544 5.504-6.5 10.947-11.493 13.201-20.162.44-1.692.08-6.25 1.727-7.144 3.354-1.813 5.841 7.887 7.352 9.57 1.13 1.258 2.429 2.776 3.728 3.789-1.172-1.635-2.827-3.057-3.708-5.001 1.166 2.573 7.234 1.365 9.232 3.601 2.211 2.476 1.44 6.222.549 9.093z"/>
    <path fill="none" d="M39.679 81.603c-1.523 1.619-5.072 5.637-7.391 5.784m2.249.322c-.557-.1-.813.108-1.215-.338 8.017.688 17.81-4.863 23.389-10.266"/>
  </g>
  <g stroke="#231f20" stroke-width=".3213">
    <path fill="url(#a)" d="M49.343 72.446c.113-.121 4.083-4.375 4.083-4.375.89-.954 1.841-1.4 2.856-1.341 1.013.06 2.047.577 3.101 1.562 1.083 1.009 1.687 2.06 1.814 3.146.126 1.086-.306 2.162-1.297 3.224l-1.347 1.442 3.972 3.706-2.467 2.643c.001 0-1.827-1.699-1.949-1.816-.931-.886-1.973-2.02-3.413-1.508-.537-1.446-1.313-2.845-2.271-4.056-.218-.275-2.878-2.847-3.082-2.627zm7.62 1.929c.241-.471.485-.954.516-1.075.21-.835.29-1.72-.392-2.358-.337-.313-.706-.49-1.106-.531-.402-.04-.831.186-1.291.679-.233.25-.468.5-.701.751 1.095 1.037 1.491 2.482 2.486 3.538-.02-.02.232-.506.488-1.004z"/>
    <path fill="url(#b)" d="M62.642 68.95c-1.459-1.328-2.928-2.876-3.207-4.751-.252-1.686.268-3.221 1.56-4.604 1.324-1.419 2.823-2.065 4.498-1.937 1.675.125 3.375.995 5.1 2.605 1.252 1.169 2.124 2.296 2.612 3.378.489 1.085.661 2.151.516 3.202-.146 1.051-.66 2.047-1.543 2.993-.846.907-2.518 2.447-3.813 2.585-1.671.175-3.146-1.159-4.291-2.195-.445-.402-.938-.827-1.432-1.276zm2.27-2.397c1.081 1.01 2.007 1.575 2.778 1.698.77.121 1.412-.09 1.925-.644.528-.566.705-1.218.531-1.961-.173-.741-.859-1.67-2.057-2.787-1.009-.943-1.896-1.469-2.663-1.579-.767-.113-1.409.109-1.926.665-.495.529-.656 1.176-.483 1.939.172.76.804 1.65 1.895 2.669z"/>
    <path fill="url(#c)" d="M65.787 54.83c.4.373 6.667-7.633 7.2-8.349.283.102 2.517 2.259 2.428 2.45-.119.256-1.884 3.166-2.017 3.044 1.505 1.379 3.13 2.626 4.579 4.067 1.057 1.053 3.345 3.1 2.579 4.734-.42.898-1.338 1.531-1.97 2.258-.328-.837-.884-1.608-1.428-2.333-.432-.576-6.136-6.182-6.221-6.092l-2.508 2.688s-2.64-2.466-2.642-2.467z"/>
    <path fill="url(#d)" d="M74.409 45.592c-.03-.04 2.339-3.617 2.625-3.94 1.373-1.557 3.413-1.97 5.395-1.589 1.602.305 2.674.85 3.114 2.429-.126-.453 1.723.452 1.874.588.711.637 1.291 1.563 1.669 2.432.811 1.861.683 3.917-.169 5.743-.769 1.647-2.557 3.023-3.79 4.343 0-.001-10.639-9.931-10.718-10.006zm5.13-.392c.02.143.07.281.162.408.821 1.181 2.256 1.91 3.171 3.014.893 1.077 2.009 3.198 3.184 1.2.424-.72.844-2.213.275-2.992-.72-.984-.944.18-1.104.811.05-2.026-1.326-4.257-3.535-4.466-1.052-.1-2.293 1.079-2.153 2.025z"/>
  </g>
</svg>